{"title":"The Princess And The Frog DVDSCR AC3 XVID-IMAGiNE","uid":5288385,"size":1601284201,"categoryP":"video","categoryS":"movies","magnet":"?xt=urn:btih:6be245160ecfe0db421c9d3a425530cdf86894b5&amp;dn=The+Princess+And+The+Frog+DVDSCR+AC3+XVID-IMAGiNE&amp;tr=udp%3A%2F%2Ftracker.openbittorrent.com%3A80&amp;tr=udp%3A%2F%2Fopen.demonii.com%3A1337&amp;tr=udp%3A%2F%2Ftracker.coppersurfer.tk%3A6969&amp;tr=udp%3A%2F%2Fexodus.desync.com%3A6969","seeders":1,"leechers":0,"uploader":"raymondhome","files":-1,"time":1263809112,"description":"Love for All and Sharing is the first step to solving all the problems of humanity.\n\nWebsites I want to share.\n\n    &lt;a href=&quot;\nhttp://www.shareintl.org/&quot; rel=&quot;nofollow&quot; target=&quot;_NEW&quot;&gt;\nhttp://www.shareintl.org/&lt;/a&gt;\n\n    &lt;a href=&quot;\nhttp://www.lightmiddleway.com&quot; rel=&quot;nofollow&quot; target=&quot;_NEW&quot;&gt;\nhttp://www.lightmiddleway.com&lt;/a&gt;\n\n\nThank you very much\n\nNo credit for me...credit to EVERYONE for sharing\n &lt;a href=&quot;\nhttp://thepiratebay.se/user/raymondhome/&quot; rel=&quot;nofollow&quot; target=&quot;_NEW&quot;&gt;\nhttp://thepiratebay.se/user/raymondhome/&lt;/a&gt;\n\nRipper ...........: IMAGiNE IMDB Rating.......:7.9/10\nVideo Codec.......: XVID Release Date......:17/01/10\nAudio Codec.......:MP3 Theatre Date......:11/12/09\nAudio Bitrate.....:128 Runtime.......:1h 34mn\nSubtitles.........:NIL Language..........:ENGLISH\nResolution...... 640 x 352\n\nVideo\nID : 0\nFormat : MPEG-4 Visual\nFormat profile : Advanced Simple@L5\nFormat settings, BVOP : Yes\nFormat settings, QPel : No\nFormat settings, GMC : No warppoints\nFormat settings, Matrix : Default (H.263)\nMuxing mode : Packed bitstream\nCodec ID : XVID\nCodec ID/Hint : XviD\nDuration : 1h 30mn\nBit rate : 2 040 Kbps\nWidth : 672 pixels\nHeight : 384 pixels\nDisplay aspect ratio : 16/9\nFrame rate : 23.976 fps\nResolution : 24 bits\nColorimetry : 4:2:0\nScan type : Progressive\nBits/(Pixel*Frame) : 0.330\nStream size : 1.29 GiB (88%)\nWriting library : XviD 1.2.1 (UTC 2008-12-04)\n\nAudio\nID : 1\nFormat : AC-3\nFormat/Info : Audio Coding 3\nCodec ID : 2000\nDuration : 1h 30mn\nBit rate mode : Constant\nBit rate : 256 Kbps\nChannel(s) : 2 channels\nChannel positions : L R\nSampling rate : 48.0 KHz\nStream size : 166 MiB (11%)\nAlignment : Aligned on interleaves\nInterleave, duration : 42 ms (1.00 video frame)\nInterleave, preload duration : 512 ms\n\nIMAGiNE bringing you another release.....\n\nSods law....we brought you a sweet TS and the bloody DVDSCR comes out lol.\n\nAnyway we thought we'd have ago at doing our own dvdscr rip so here it is.\n\nWe used nokias dvdr for this and kept the AC3 audio that was on it.......video didn't need tweaking too much but needed borders cropped,resize and fix AR afterwards.....anyway enjoy a better copy.\n\nOh yes property of now and again throughout.....\n\n*****help what we can with haiti...the world is ONE big family*****","torrent":{"xt":"urn:btih:6be245160ecfe0db421c9d3a425530cdf86894b5","amp;dn":"The+Princess+And+The+Frog+DVDSCR+AC3+XVID-IMAGiNE","amp;tr":["udp%3A%2F%2Ftracker.openbittorrent.com%3A80","udp%3A%2F%2Fopen.demonii.com%3A1337","udp%3A%2F%2Ftracker.coppersurfer.tk%3A6969","udp%3A%2F%2Fexodus.desync.com%3A6969"],"infoHash":"6be245160ecfe0db421c9d3a425530cdf86894b5","infoHashBuffer":{"type":"Buffer","data":[107,226,69,22,14,207,224,219,66,28,157,58,66,85,48,205,248,104,148,181]},"announce":[],"urlList":[]}}